#N canvas 50 82 859 669 10;
#X obj 62 120 f;
#X obj 108 121 + 1;
#X obj 62 87 metro;
#X obj 62 28 tgl 15 1 empty empty empty 0 -6 0 10 -262144 -1 -1 0 1
;
#X obj 89 64 nbx 5 14 -1e+37 1e+37 0 1 empty empty empty 0 -6 0 10
-262144 -1 -1 1168 256;
#X text 427 30 ctl4.pd;
#X obj 62 178 hradio 15 1 0 8 empty empty empty 0 -6 0 10 -262144 -1
-1 7;
#X obj 639 233 makenote;
#X obj 639 290 noteout;
#X floatatom 639 178 5 0 0 0 - - -;
#X msg 707 216 1300;
#X obj 628 147 - 12;
#X msg 699 270 4;
#X obj 642 105 receive noten;
#X obj 62 151 mod 8;
#X msg 681 189 127;
#X obj 267 231 makenote;
#X obj 267 288 noteout;
#X floatatom 267 176 5 0 0 0 - - -;
#X msg 359 202 1300;
#X obj 270 103 receive noten;
#X msg 309 187 127;
#X obj 510 244 makenote;
#X obj 510 301 noteout;
#X floatatom 510 189 5 0 0 0 - - -;
#X msg 577 225 1300;
#X obj 513 116 receive noten;
#X msg 552 200 127;
#X obj 256 145 + 0;
#X msg 344 266 1;
#X obj 419 234 makenote;
#X obj 419 284 noteout;
#X floatatom 419 179 5 0 0 0 - - -;
#X obj 390 130 +;
#X msg 376 27 3;
#X floatatom 393 69 5 0 0 0 - - -;
#X msg 416 34 4;
#X msg 466 204 1300;
#X msg 469 258 2;
#X obj 319 228 receive start;
#X obj 372 87 receive noten;
#X msg 453 179 127;
#X msg 580 274 3;
#X obj 414 -24 receive major;
#X obj 376 -54 receive minor;
#X obj 499 158 + 7;
#X obj 62 204 select 0 1 2 3 4 5 6 7;
#X obj 114 -92 notein;
#X floatatom 118 -52 5 0 0 0 - - -;
#X obj 33 235 bng 15 250 50 0 empty empty empty 17 7 0 10 -262144 -1
-1;
#X obj 28 309 send noten;
#X obj -53 279 bng 15 250 50 0 empty empty empty 17 7 0 10 -262144
-1 -1;
#X obj -22 360 send noten;
#X obj -28 335 send major;
#X msg -51 312 62;
#X obj 130 350 bng 15 250 50 0 empty empty empty 17 7 0 10 -262144
-1 -1;
#X obj 125 424 send noten;
#X msg 132 383 59;
#X msg 35 268 57;
#X obj 155 406 send minor;
#X obj 225 372 bng 15 250 50 0 empty empty empty 17 7 0 10 -262144
-1 -1;
#X obj 220 446 send noten;
#X msg 227 405 54;
#X obj 199 283 bng 15 250 50 0 empty empty empty 17 7 0 10 -262144
-1 -1;
#X obj 194 357 send noten;
#X obj 224 339 send major;
#X msg 201 316 55;
#X obj 327 351 bng 15 250 50 0 empty empty empty 17 7 0 10 -262144
-1 -1;
#X obj 322 425 send noten;
#X obj 384 416 send major;
#X msg 329 384 50;
#X obj 483 363 bng 15 250 50 0 empty empty empty 17 7 0 10 -262144
-1 -1;
#X obj 478 437 send noten;
#X obj 508 419 send major;
#X msg 485 396 55;
#X obj 590 365 bng 15 250 50 0 empty empty empty 17 7 0 10 -262144
-1 -1;
#X obj 546 471 send noten;
#X obj 587 434 send major;
#X msg 567 410 57;
#X obj 58 291 send minor;
#X obj 250 428 send major;
#X connect 0 0 1 0;
#X connect 0 0 14 0;
#X connect 1 0 0 1;
#X connect 2 0 0 0;
#X connect 3 0 2 0;
#X connect 4 0 2 1;
#X connect 6 0 46 0;
#X connect 7 0 8 0;
#X connect 7 1 8 1;
#X connect 9 0 7 0;
#X connect 10 0 7 2;
#X connect 11 0 9 0;
#X connect 12 0 8 2;
#X connect 13 0 11 0;
#X connect 14 0 6 0;
#X connect 15 0 7 1;
#X connect 16 0 17 0;
#X connect 16 1 17 1;
#X connect 18 0 16 0;
#X connect 19 0 16 2;
#X connect 20 0 28 0;
#X connect 21 0 16 1;
#X connect 22 0 23 0;
#X connect 22 1 23 1;
#X connect 24 0 22 0;
#X connect 25 0 22 2;
#X connect 26 0 45 0;
#X connect 27 0 22 1;
#X connect 28 0 18 0;
#X connect 29 0 17 2;
#X connect 30 0 31 0;
#X connect 30 1 31 1;
#X connect 32 0 30 0;
#X connect 33 0 32 0;
#X connect 34 0 35 0;
#X connect 35 0 33 1;
#X connect 36 0 35 0;
#X connect 37 0 30 2;
#X connect 38 0 31 2;
#X connect 40 0 33 0;
#X connect 41 0 30 1;
#X connect 42 0 23 2;
#X connect 43 0 36 0;
#X connect 44 0 34 0;
#X connect 45 0 24 0;
#X connect 46 0 51 0;
#X connect 46 1 49 0;
#X connect 46 2 55 0;
#X connect 46 3 60 0;
#X connect 46 4 63 0;
#X connect 46 5 67 0;
#X connect 46 6 71 0;
#X connect 46 7 75 0;
#X connect 47 0 48 0;
#X connect 49 0 58 0;
#X connect 49 0 79 0;
#X connect 51 0 54 0;
#X connect 51 0 53 0;
#X connect 54 0 52 0;
#X connect 55 0 57 0;
#X connect 55 0 59 0;
#X connect 57 0 56 0;
#X connect 58 0 50 0;
#X connect 60 0 62 0;
#X connect 60 0 80 0;
#X connect 62 0 61 0;
#X connect 63 0 66 0;
#X connect 63 0 65 0;
#X connect 66 0 64 0;
#X connect 67 0 70 0;
#X connect 67 0 69 0;
#X connect 70 0 68 0;
#X connect 71 0 74 0;
#X connect 71 0 73 0;
#X connect 74 0 72 0;
#X connect 75 0 78 0;
#X connect 75 0 77 0;
#X connect 78 0 76 0;
