#N canvas 43 278 1351 656 12;
#X obj 8 2 cnv 15 555 333 empty back empty 20 12 0 14 -262144 -262144
0;
#N canvas 0 0 450 300 (subpatch) 0;
#X array s 1 float 2;
#X coords 0 450 1 425 10 140 1;
#X restore 41 112 graph;
#X msg 253 261 \; s yticks 425 1 5;
#X floatatom 292 103 5 0 0 0 - - -;
#X msg 253 219 \; s ylabel 3 425 430 435 440 445 450;
#X obj 292 77 mtof;
#X obj 20 61 cnv 5 200 5 empty empty empty 20 12 0 14 -1 -66577 0;
#X obj 20 64 cnv 5 5 220 empty empty empty 20 12 0 14 -1 -66577 0;
#X obj 215 65 cnv 5 5 220 empty empty empty 20 12 0 14 -1 -66577 0
;
#X obj 20 281 cnv 5 200 5 empty empty empty 20 12 0 14 -1 -66577 0
;
#X obj 23 23 cnv 15 5 5 empty empty Tuner 20 12 1 14 -262144 -66577
0;
#X floatatom 292 55 5 0 0 0 - - -;
#X obj 285 -235 adc~;
#N canvas 244 464 462 312 back 0;
#X msg 298 210 \; back color \$1;
#X floatatom 310 131 5 0 0 0 - - -;
#X msg 378 162 210;
#X obj 373 117 loadbang;
#X msg 312 91 14;
#X obj 316 47 inlet;
#X connect 1 0 0 0;
#X connect 2 0 0 0;
#X connect 3 0 2 0;
#X connect 4 0 1 0;
#X connect 5 0 4 0;
#X restore 440 299 pd back;
#X obj 440 275 bng 15 250 50 0 empty empty empty 0 -6 0 8 -262144 -1
-1;
#N canvas 201 156 477 476 andere 0;
#N canvas 0 0 450 300 (subpatch) 0;
#X array d 1 float 2;
#X coords 0 200 1 100 10 300 1;
#X restore 41 112 graph;
#X text 61 79 Frequenz (Hertz);
#X obj 16 23 cnv 15 5 5 empty empty Stimmgerät 20 12 1 14 -262144
-66577 0;
#X obj 327 35 inlet;
#N canvas 507 190 701 466 darst 0;
#X obj 301 140 tabwrite d;
#X obj 211 141 tabwrite s;
#X msg 438 323 \; d ylabel 3 100 125 150 175 200;
#X msg 438 365 \; d yticks 100 1 5;
#X obj 438 294 loadbang;
#X obj 439 224 loadbang;
#X msg 439 250 \; e yticks 53 1 1;
#X obj 303 228 tabwrite e;
#X obj 317 195 ftom;
#X obj 301 112 unsig~ 20;
#X obj 305 46 inlet;
#X obj 300 82 lop~ 1;
#X connect 4 0 2 0;
#X connect 4 0 3 0;
#X connect 5 0 6 0;
#X connect 8 0 7 0;
#X connect 9 0 0 0;
#X connect 9 0 1 0;
#X connect 9 0 8 0;
#X connect 10 0 11 0;
#X connect 11 0 9 0;
#X restore 327 61 pd darst;
#N canvas 0 0 450 300 (subpatch) 0;
#X array e 1 float 2;
#X coords 0 55 1 43 10 300 1;
#X restore 203 113 graph;
#X text 222 402 G;
#X text 220 103 g;
#X text 223 355 A;
#X text 217 378 Gis;
#X text 224 329 B;
#X text 224 305 H;
#X text 224 279 c;
#X text 222 255 cis;
#X text 224 229 d;
#X text 221 205 dis;
#X text 224 180 e;
#X text 224 155 f;
#X text 221 130 fis;
#X connect 3 0 4 0;
#X restore 295 144 pd andere;
#X text 61 79 Frequency (Hertz);
#X text 66 -13 Mikrophone Input;
#X text 65 -25 3.8.3.2. Tuner;
#X text 341 64 pitch recognition;
#X text 338 73 conversion;
#X text 252 193 for visualization:;
#X text 467 274 color;
#X text 426 158 grahic;
#X text 66 -3 www.pd-tutorial.com;
#X text 65 -48 Johannes Kreidler;
#X obj 660 68 makenote;
#X obj 660 118 noteout;
#X floatatom 660 -52 5 0 0 0 - - -;
#X obj 284 -79 fiddle~;
#X text 65 -37 Johannes Kreidler;
#X obj 843 68 makenote;
#X obj 843 118 noteout;
#X floatatom 843 13 5 0 0 0 - - -;
#X obj 1030 47 makenote;
#X obj 1030 97 noteout;
#X floatatom 1030 -8 5 0 0 0 - - -;
#X obj 660 -116 + 0.5;
#X obj 660 -85 int;
#X obj 284 -143 *~;
#X obj 348 -107 hsl 128 15 0 1 0 0 empty empty empty -2 -8 0 10 -262144
-1 -1 4100 1;
#X obj 814 -36 +;
#X obj 1019 -39 + 7;
#X msg 800 -139 3;
#X floatatom 817 -97 5 0 0 0 - - -;
#X msg 840 -132 4;
#X msg 742 31 1300;
#X msg 1073 55 1300;
#X msg 912 43 1300;
#X obj 1218 17 makenote;
#X obj 1218 74 noteout;
#X floatatom 1218 -38 5 0 0 0 - - -;
#X msg 1286 0 1300;
#X obj 1207 -69 - 12;
#X obj 605 235 +~;
#X obj 603 384 dac~;
#X obj 553 188 phasor~ 110;
#X obj 947 288 +~;
#X obj 946 313 *~ 0.1;
#X obj 942 374 dac~;
#X obj 895 211 -~ 0.5;
#X obj 981 211 -~ 0.5;
#X obj 894 183 phasor~ 220;
#X obj 980 183 phasor~ 221;
#X obj 639 187 phasor~ 110;
#X obj 604 118 mtof;
#X obj 641 157 + 1;
#X obj 754 156 * 2;
#X obj 998 163 + 1;
#X obj 610 63 - 12;
#X obj 495 149 bng 15 250 50 0 empty empty empty 17 7 0 10 -262144
-1 -1;
#X obj 606 344 *~;
#X obj 941 341 *~;
#X obj 706 330 vline~;
#X msg 730 87 1;
#X msg 918 86 2;
#X msg 1116 106 3;
#X msg 1278 54 4;
#X msg 706 295 1 0 \, 1 1400 \, 0 1500;
#X msg 405 -132 0;
#X floatatom 385 -77 5 0 0 0 - - -;
#X obj 604 296 *~ 0.1;
#X obj 447 64 send amp;
#X obj 670 7 receive amp;
#X obj 901 -34 receive amp;
#X obj 1087 -9 receive amp;
#X obj 1265 -62 receive amp;
#X obj 213 -41 send mnum;
#X obj 660 -153 receive mnum;
#X floatatom 327 -46 5 0 0 0 - - -;
#X obj 951 -164 bng 15 250 50 0 empty empty empty 17 7 0 10 -262144
-1 -1;
#X obj 951 -131 send start;
#X obj 1311 -15 receive start;
#X obj 1088 -68 receive start;
#X obj 906 10 receive start;
#X obj 743 62 receive start;
#X obj 284 -188 lp3_butt~ 500;
#X msg 399 8 127;
#X obj 661 -28 send noten;
#X obj 564 -13 receive noten;
#X obj 858 -74 receive noten;
#X obj 1021 -107 receive noten;
#X obj 1221 -111 receive noten;
#X obj 413 -186 key;
#X msg 315 -155 1;
#X obj 522 -151 keyup;
#X obj 437 -150 bng 15 250 50 0 empty empty empty 17 7 0 10 -262144
-1 -1;
#X obj 520 -119 bng 15 250 50 0 empty empty empty 17 7 0 10 -262144
-1 -1;
#X obj 285 -111 *~;
#X obj 429 -248 send noten;
#X obj 384 -38 receive start;
#X obj 326 -9 - 40;
#X obj 489 -201 notein;
#X obj 325 23 * 5;
#X obj 717 228 receive amp;
#X obj 717 259 / 2000;
#X connect 3 0 15 0;
#X connect 5 0 3 0;
#X connect 5 0 70 0;
#X connect 11 0 5 0;
#X connect 12 0 96 0;
#X connect 12 1 96 0;
#X connect 14 0 13 0;
#X connect 26 0 27 0;
#X connect 26 1 27 1;
#X connect 28 0 98 0;
#X connect 29 0 11 0;
#X connect 29 0 87 0;
#X connect 29 3 89 0;
#X connect 31 0 32 0;
#X connect 31 1 32 1;
#X connect 33 0 31 0;
#X connect 34 0 35 0;
#X connect 34 1 35 1;
#X connect 36 0 34 0;
#X connect 37 0 38 0;
#X connect 38 0 28 0;
#X connect 39 0 108 0;
#X connect 40 0 108 1;
#X connect 40 0 80 0;
#X connect 41 0 33 0;
#X connect 42 0 36 0;
#X connect 43 0 44 0;
#X connect 44 0 41 1;
#X connect 45 0 44 0;
#X connect 46 0 26 2;
#X connect 47 0 34 2;
#X connect 48 0 31 2;
#X connect 49 0 50 0;
#X connect 49 1 50 1;
#X connect 51 0 49 0;
#X connect 52 0 49 2;
#X connect 53 0 51 0;
#X connect 54 0 81 0;
#X connect 56 0 54 0;
#X connect 57 0 58 0;
#X connect 58 0 72 0;
#X connect 60 0 57 0;
#X connect 61 0 57 1;
#X connect 62 0 60 0;
#X connect 63 0 61 0;
#X connect 64 0 54 1;
#X connect 65 0 56 0;
#X connect 65 0 66 0;
#X connect 65 0 67 0;
#X connect 66 0 64 0;
#X connect 67 0 62 0;
#X connect 67 0 68 0;
#X connect 68 0 63 0;
#X connect 69 0 65 0;
#X connect 70 0 78 0;
#X connect 71 0 55 0;
#X connect 71 0 55 1;
#X connect 72 0 59 0;
#X connect 72 0 59 1;
#X connect 73 0 71 1;
#X connect 73 0 72 1;
#X connect 74 0 27 2;
#X connect 75 0 32 2;
#X connect 76 0 35 2;
#X connect 77 0 50 2;
#X connect 78 0 73 0;
#X connect 79 0 39 1;
#X connect 81 0 71 0;
#X connect 83 0 26 1;
#X connect 84 0 31 1;
#X connect 85 0 34 1;
#X connect 86 0 49 1;
#X connect 88 0 37 0;
#X connect 89 0 111 0;
#X connect 90 0 91 0;
#X connect 92 0 52 0;
#X connect 92 0 77 0;
#X connect 93 0 76 0;
#X connect 93 0 47 0;
#X connect 94 0 48 0;
#X connect 94 0 75 0;
#X connect 95 0 46 0;
#X connect 95 0 74 0;
#X connect 96 0 39 0;
#X connect 99 0 69 0;
#X connect 99 0 26 0;
#X connect 100 0 41 0;
#X connect 101 0 42 0;
#X connect 102 0 53 0;
#X connect 103 0 104 0;
#X connect 103 0 106 0;
#X connect 104 0 39 1;
#X connect 105 0 79 0;
#X connect 105 0 107 0;
#X connect 108 0 29 0;
#X connect 110 0 97 0;
#X connect 111 0 113 0;
#X connect 112 0 109 0;
#X connect 113 0 82 0;
#X connect 114 0 115 0;
#X connect 115 0 81 1;
#X connect 115 0 58 1;
