#N canvas 50 82 450 300 10;
#X obj 84 28 adc~;
#X obj 150 144 f;
#X obj 196 145 + 1;
#X obj 150 111 metro;
#X obj 150 52 tgl 15 1 empty empty empty 0 -6 0 10 -262144 -1 -1 0
1;
#X obj 177 88 nbx 5 14 -1e+37 1e+37 0 1 empty empty empty 0 -6 0 10
-262144 -1 -1 200 256;
#X floatatom 143 227 5 0 0 0 - - -;
#X obj 136 268 noteout;
#X obj 257 226 + 60;
#X obj 150 175 mod 13;
#X msg 206 243 1;
#X msg 169 244 127;
#X connect 1 0 2 0;
#X connect 1 0 9 0;
#X connect 2 0 1 1;
#X connect 3 0 1 0;
#X connect 4 0 3 0;
#X connect 5 0 3 1;
#X connect 6 0 7 0;
#X connect 8 0 6 0;
#X connect 9 0 8 0;
#X connect 10 0 7 2;
#X connect 11 0 7 1;
