#N canvas 666 116 650 587 10;
#X obj 24 44 adc~;
#X obj 71 469 dac~;
#X obj 167 210 delread~ delay1 500;
#X obj 69 254 +~;
#X floatatom 167 146 5 0 0 0 - - -;
#X obj 70 399 filtersongabs;
#X obj 172 301 delwrite~ delay1 1000;
#X obj 117 -51 tgl 15 0 empty empty empty 17 7 0 10 -262144 -1 -1 1
1;
#X obj 69 165 *~;
#X obj 116 73 line 0 100;
#X msg 117 33 1 500;
#X msg 196 53 0 500;
#X floatatom 116 130 5 0 0 0 - - -;
#X obj 80 218 send~ window;
#X obj 428 -36 bng 50 250 50 0 empty empty empty 17 7 0 10 -4034 -1
-1;
#X obj 428 28 send start;
#X msg 167 123 900;
#X obj 117 -87 receive start;
#X obj 167 96 receive start;
#X obj 145 368 receive start;
#X obj 25 81 send~ in;
#X obj 28 107 receive~ in;
#X obj 117 -25 metro 2500;
#X obj 166 236 *~ 0.7;
#X floatatom 206 130 5 0 0 0 - - -;
#X msg 273 62 seed 123;
#X obj 167 179 +;
#X obj 271 33 receive start;
#X obj 259 114 random 200;
#X obj 120 370 tgl 15 0 empty empty empty 17 7 0 10 -262144 -1 -1 1
1;
#X obj 172 270 /~ 2;
#X obj 69 316 specdelayabs;
#X obj 196 -5 delay 700;
#X connect 0 0 20 0;
#X connect 0 1 20 0;
#X connect 2 0 23 0;
#X connect 3 0 30 0;
#X connect 3 0 31 0;
#X connect 4 0 26 0;
#X connect 5 0 1 1;
#X connect 5 1 1 0;
#X connect 7 0 22 0;
#X connect 8 0 3 0;
#X connect 8 0 13 0;
#X connect 9 0 8 1;
#X connect 9 0 12 0;
#X connect 10 0 9 0;
#X connect 11 0 9 0;
#X connect 14 0 15 0;
#X connect 16 0 4 0;
#X connect 17 0 7 0;
#X connect 18 0 16 0;
#X connect 19 0 5 3;
#X connect 21 0 8 0;
#X connect 22 0 10 0;
#X connect 22 0 32 0;
#X connect 23 0 3 1;
#X connect 24 0 26 1;
#X connect 25 0 28 0;
#X connect 26 0 2 0;
#X connect 27 0 25 0;
#X connect 28 0 24 0;
#X connect 29 0 5 2;
#X connect 30 0 6 0;
#X connect 31 0 5 0;
#X connect 31 0 5 1;
#X connect 32 0 11 0;
#X connect 32 0 28 0;
