#N canvas 50 82 1315 685 10;
#X obj 220 -1008 hsl 128 15 0 1000 0 0 empty empty empty -2 -8 0 10
-258113 -1 -1 0 1;
#X obj 210 -916 hsl 128 15 0 5 0 0 empty empty empty -2 -8 0 10 -258113
-1 -1 0 1;
#X obj 191 -841 *~;
#X floatatom 220 -852 5 0 0 0 - - -;
#X floatatom 259 -943 5 0 0 0 - - -;
#X text 190 -1060 This is the bass boost;
#X obj 614 -1003 hsl 128 15 1000 5000 0 0 empty empty empty -2 -8 0
10 -258113 -1 -1 0 1;
#X obj 578 -944 hip~ 6;
#X floatatom 631 -946 5 0 0 0 - - -;
#X obj 579 -861 *~;
#X floatatom 614 -871 5 0 0 0 - - -;
#X obj 994 -1001 hsl 128 15 0 1 0 0 empty empty empty -2 -8 0 10 -258113
-1 -1 0 1;
#X obj 192 -942 lp3_butt~;
#X obj 617 -922 hsl 128 15 0 5 0 0 empty empty empty -2 -8 0 10 -258113
-1 -1 0 1;
#X floatatom 1001 -939 5 0 0 0 - - -;
#X obj 971 -939 *~;
#X obj 12 -1038 send~ signalinl;
#X obj 38 -1067 send~ signalinr;
#X obj 191 -1036 receive~ signalinl;
#X obj 579 -1022 receive~ signalinl;
#X obj 971 -1027 receive~ signalinl;
#X obj 396 -1008 hsl 128 15 0 1000 0 0 empty empty empty -2 -8 0 10
-257985 -1 -1 0 1;
#X obj 386 -916 hsl 128 15 0 5 0 0 empty empty empty -2 -8 0 10 -257985
-1 -1 0 1;
#X obj 367 -841 *~;
#X floatatom 396 -852 5 0 0 0 - - -;
#X floatatom 435 -943 5 0 0 0 - - -;
#X obj 368 -942 lp3_butt~;
#X obj 366 -809 send~ bassr;
#X obj 367 -1036 receive~ signalinr;
#X obj 190 -809 send~ bassl;
#X obj 811 -1007 hsl 128 15 1000 5000 0 0 empty empty empty -2 -8 0
10 -257985 -1 -1 0 1;
#X obj 775 -948 hip~ 6;
#X floatatom 828 -950 5 0 0 0 - - -;
#X obj 776 -865 *~;
#X floatatom 811 -875 5 0 0 0 - - -;
#X obj 814 -926 hsl 128 15 0 5 0 0 empty empty empty -2 -8 0 10 -257985
-1 -1 0 1;
#X obj 776 -824 send~ trebleboostr;
#X obj 776 -1026 receive~ signalinr;
#X obj 578 -820 send~ trebleboostl;
#X obj 481 -664 receive~ untouchedl;
#X obj 483 -632 receive~ bassl;
#X obj 513 -591 receive~ trebleboostl;
#X obj 970 -901 send~ untouchedl;
#X obj 1171 -998 hsl 128 15 0 1 0 0 empty empty empty -2 -8 0 10 -257985
-1 -1 0 1;
#X floatatom 1178 -936 5 0 0 0 - - -;
#X obj 1148 -936 *~;
#X obj 1148 -1024 receive~ signalinr;
#X obj 1147 -898 send~ untouchedr;
#X obj 635 -751 receive~ untouchedr;
#X obj 643 -732 receive~ bassr;
#X obj 653 -708 receive~ trebleboostr;
#X text 576 -1044 This is the treble boost;
#X obj 230 -1109 hsl 128 15 0 500 0 0 empty empty empty -2 -8 0 10
-4034 -1 -1 0 1;
#X obj 227 -1078 send commonbassf;
#X obj 240 -981 receive commonbassf;
#X obj 425 -985 receive commonbassf;
#X obj 227 -889 receive commonbassa;
#X obj 404 -892 receive commonbassa;
#X obj 378 -1105 hsl 128 15 0 5 0 0 empty empty empty -2 -8 0 10 -4034
-1 -1 0 1;
#X obj 375 -1065 send commonbassa;
#X obj 615 -1090 hsl 128 15 1000 5000 0 0 empty empty empty -2 -8 0
10 -4034 -1 -1 0 1;
#X obj 767 -1092 hsl 128 15 0 5 0 0 empty empty empty -2 -8 0 10 -4034
-1 -1 0 1;
#X obj 612 -1059 send commontrebf;
#X obj 764 -1055 send commontreba;
#X obj 633 -978 receive commontrebf;
#X obj 835 -986 receive commontrebf;
#X obj 623 -897 receive commontreba;
#X obj 821 -903 receive commontreba;
#X obj 1038 -1104 hsl 128 15 0 5 0 0 empty empty empty -2 -8 0 10 -4034
-1 -1 1800 1;
#X obj 1035 -1062 send commonpassa;
#X obj 1019 -972 receive commonpassa;
#X obj 1186 -969 receive commonpassa;
#X obj 505 -552 +~;
#X obj 659 -628 +~;
#X obj 739 -443 freeverb~;
#X msg 824 -738 roomsize \$1;
#X msg 823 -677 damping \$1;
#X msg 819 -607 wet \$1;
#X msg 818 -586 dry \$1;
#X msg 837 -517 freeze \$1;
#X msg 837 -460 bypass \$1;
#X obj 837 -534 tgl 15 0 empty empty empty 17 7 0 10 -262144 -1 -1
0 1;
#X obj 837 -477 tgl 15 0 empty empty empty 17 7 0 10 -262144 -1 -1
1 1;
#X obj 949 -647 hsl 128 15 0 1 0 0 empty empty empty -2 -8 0 10 -4032
-1 -1 0 1;
#X floatatom 948 -625 5 0 0 0 - - -;
#X obj 879 -603 expr 1-$f1;
#X obj 949 -759 hsl 128 15 0 1 0 0 empty empty empty -2 -8 0 10 -4034
-1 -1 0 1;
#X obj 951 -702 hsl 128 15 0 1 0 0 empty empty empty -2 -8 0 10 -260097
-1 -1 0 1;
#X floatatom 948 -682 5 0 0 0 - - -;
#X floatatom 946 -734 5 0 0 0 - - -;
#X text 928 -528 Freeze the reverb;
#X text 928 -468 the dry signal pass through.;
#X text 927 -481 Trun the reverb off and let;
#X text 998 -617 Wet signal to dry signal ratio;
#X text 998 -601 (0 : all dry \, 1 : all wet);
#X text 999 -682 Damping level;
#X text 998 -736 Roomize;
#X text 833 -332 Pierre Massat \, GuitarExtended \, 2012;
#X msg 984 -803 0.85;
#X obj 12 -1108 inlet~;
#X obj 37 -1094 inlet~;
#X obj 793 -379 outlet~;
#X obj 742 -395 outlet~;
#X msg 962 -1079 0.75;
#X obj 1224 -750 bng 15 250 50 0 empty empty empty 17 7 0 10 -262144
-1 -1;
#X obj 1225 -801 inlet;
#X obj 1224 -713 send init;
#X obj 981 -833 receive init;
#X obj 899 -733 receive init;
#X obj 435 -1087 receive init;
#X obj 878 -662 receive init;
#X obj 961 -1121 receive init;
#X msg 397 -1085 0.5;
#X obj 173 -1119 receive init;
#X msg 869 -709 0.3;
#X msg 845 -645 0.25;
#X obj 837 -501 inlet;
#X msg 173 -1100 200;
#X connect 0 0 4 0;
#X connect 0 0 12 1;
#X connect 1 0 3 0;
#X connect 1 0 2 1;
#X connect 2 0 29 0;
#X connect 6 0 7 1;
#X connect 6 0 8 0;
#X connect 7 0 9 0;
#X connect 9 0 38 0;
#X connect 11 0 14 0;
#X connect 11 0 15 1;
#X connect 12 0 2 0;
#X connect 13 0 9 1;
#X connect 13 0 10 0;
#X connect 15 0 42 0;
#X connect 18 0 12 0;
#X connect 19 0 7 0;
#X connect 20 0 15 0;
#X connect 21 0 25 0;
#X connect 21 0 26 1;
#X connect 22 0 24 0;
#X connect 22 0 23 1;
#X connect 23 0 27 0;
#X connect 26 0 23 0;
#X connect 28 0 26 0;
#X connect 30 0 31 1;
#X connect 30 0 32 0;
#X connect 31 0 33 0;
#X connect 33 0 36 0;
#X connect 35 0 33 1;
#X connect 35 0 34 0;
#X connect 37 0 31 0;
#X connect 39 0 72 0;
#X connect 40 0 72 0;
#X connect 41 0 72 1;
#X connect 43 0 44 0;
#X connect 43 0 45 1;
#X connect 45 0 47 0;
#X connect 46 0 45 0;
#X connect 48 0 73 0;
#X connect 49 0 73 0;
#X connect 50 0 73 1;
#X connect 52 0 53 0;
#X connect 54 0 12 1;
#X connect 54 0 4 0;
#X connect 55 0 26 1;
#X connect 55 0 25 0;
#X connect 56 0 2 1;
#X connect 56 0 3 0;
#X connect 57 0 23 1;
#X connect 57 0 24 0;
#X connect 58 0 59 0;
#X connect 60 0 62 0;
#X connect 61 0 63 0;
#X connect 64 0 7 1;
#X connect 64 0 8 0;
#X connect 65 0 31 1;
#X connect 65 0 32 0;
#X connect 66 0 9 1;
#X connect 66 0 10 0;
#X connect 67 0 33 1;
#X connect 67 0 34 0;
#X connect 68 0 69 0;
#X connect 70 0 15 1;
#X connect 70 0 14 0;
#X connect 71 0 45 1;
#X connect 71 0 44 0;
#X connect 72 0 74 0;
#X connect 73 0 74 1;
#X connect 74 0 102 0;
#X connect 74 1 101 0;
#X connect 75 0 74 0;
#X connect 76 0 74 0;
#X connect 77 0 74 0;
#X connect 78 0 74 0;
#X connect 79 0 74 0;
#X connect 80 0 74 0;
#X connect 81 0 79 0;
#X connect 82 0 80 0;
#X connect 83 0 84 0;
#X connect 83 0 77 0;
#X connect 83 0 85 0;
#X connect 85 0 78 0;
#X connect 86 0 75 0;
#X connect 86 0 89 0;
#X connect 87 0 76 0;
#X connect 87 0 88 0;
#X connect 98 0 75 0;
#X connect 99 0 16 0;
#X connect 100 0 17 0;
#X connect 103 0 69 0;
#X connect 104 0 106 0;
#X connect 105 0 104 0;
#X connect 107 0 98 0;
#X connect 108 0 114 0;
#X connect 109 0 112 0;
#X connect 110 0 115 0;
#X connect 111 0 103 0;
#X connect 112 0 59 0;
#X connect 113 0 117 0;
#X connect 114 0 76 0;
#X connect 115 0 77 0;
#X connect 116 0 82 0;
#X connect 117 0 53 0;
