#N canvas 86 170 1425 626 10;
#X obj 18 -1110 adc~;
#X obj 220 -1008 hsl 128 15 0 1000 0 0 empty empty empty -2 -8 0 10
-258113 -1 -1 0 1;
#X obj 210 -916 hsl 128 15 0 5 0 0 empty empty empty -2 -8 0 10 -258113
-1 -1 0 1;
#X obj 191 -841 *~;
#X floatatom 220 -852 5 0 0 0 - - -;
#X floatatom 259 -943 5 0 0 0 - - -;
#X text 190 -1060 This is the bass boost;
#X obj 614 -1003 hsl 128 15 1000 5000 0 0 empty empty empty -2 -8 0
10 -258113 -1 -1 0 1;
#X obj 578 -944 hip~ 6;
#X floatatom 631 -946 5 0 0 0 - - -;
#X obj 579 -861 *~;
#X floatatom 614 -871 5 0 0 0 - - -;
#X obj 994 -1001 hsl 128 15 0 1 0 0 empty empty empty -2 -8 0 10 -258113
-1 -1 0 1;
#X obj 250 -546 tabwrite~ out;
#X obj 249 -614 tgl 15 0 empty empty empty 17 7 0 10 -262144 -1 -1
0 1;
#N canvas 0 0 450 300 (subpatch) 0;
#X array out 100 float 1;
#A 0 -0.322909 -0.436613 -0.455349 -0.343091 -0.257858 -0.220579 -0.253003
-0.280869 -0.26237 -0.291577 -0.244588 -0.240412 -0.319492 -0.398501
-0.490092 -0.436958 -0.38312 -0.328793 -0.226818 -0.231928 -0.221752
-0.18617 -0.133913 -0.114954 -0.097382 -0.0229902 0.00132921 0.180861
0.356262 0.219422 -0.131628 -0.511601 -0.736802 -0.859512 -0.689339
-0.269295 -0.0647705 -0.153261 -0.326992 -0.303461 -0.348906 -0.475574
-0.322678 -0.186694 -0.117091 -0.0968584 -0.0883752 0.0721433 0.173521
0.203463 0.166308 0.133411 0.105504 0.0071306 0.0416455 0.0424348 -0.0416039
-0.109084 -0.166114 -0.0499083 0.109182 0.17933 0.176367 0.15461 0.177576
0.211717 0.30349 0.316678 0.177117 0.0304637 -0.0559896 -0.0830206
-0.133246 -0.100107 0.0234705 -0.077438 -0.301396 -0.269603 -0.0851367
-0.0605981 -0.132044 -0.10436 -0.115738 -0.294514 -0.40039 -0.381269
-0.419815 -0.502734 -0.483971 -0.269801 -0.0773743 0.0460651 0.218694
0.200473 0.0108241 -0.132146 -0.168687 -0.201917 -0.380743 -0.480753
;
#X coords 0 1 99 -1 200 140 1 0 0;
#X restore 225 -766 graph;
#X obj 192 -942 lp3_butt~;
#X obj 617 -922 hsl 128 15 0 5 0 0 empty empty empty -2 -8 0 10 -258113
-1 -1 0 1;
#X floatatom 1001 -939 5 0 0 0 - - -;
#X obj 971 -939 *~;
#X obj 19 -1040 send~ signalinl;
#X obj 38 -1067 send~ signalinr;
#X obj 191 -1036 receive~ signalinl;
#X obj 579 -1022 receive~ signalinl;
#X obj 971 -1027 receive~ signalinl;
#X obj 396 -1008 hsl 128 15 0 1000 0 0 empty empty empty -2 -8 0 10
-257985 -1 -1 0 1;
#X obj 386 -916 hsl 128 15 0 5 0 0 empty empty empty -2 -8 0 10 -257985
-1 -1 0 1;
#X obj 367 -841 *~;
#X floatatom 396 -852 5 0 0 0 - - -;
#X floatatom 435 -943 5 0 0 0 - - -;
#X obj 368 -942 lp3_butt~;
#X obj 366 -809 send~ bassr;
#X obj 367 -1036 receive~ signalinr;
#X obj 190 -809 send~ bassl;
#X obj 811 -1007 hsl 128 15 1000 5000 0 0 empty empty empty -2 -8 0
10 -257985 -1 -1 0 1;
#X obj 775 -948 hip~ 6;
#X floatatom 828 -950 5 0 0 0 - - -;
#X obj 776 -865 *~;
#X floatatom 811 -875 5 0 0 0 - - -;
#X obj 814 -926 hsl 128 15 0 5 0 0 empty empty empty -2 -8 0 10 -257985
-1 -1 0 1;
#X obj 776 -824 send~ trebleboostr;
#X obj 776 -1026 receive~ signalinr;
#X obj 578 -820 send~ trebleboostl;
#X obj -68 -738 receive~ untouchedl;
#X obj -66 -706 receive~ bassl;
#X obj -36 -665 receive~ trebleboostl;
#X obj 970 -901 send~ untouchedl;
#X obj 1171 -998 hsl 128 15 0 1 0 0 empty empty empty -2 -8 0 10 -257985
-1 -1 0 1;
#X floatatom 1178 -936 5 0 0 0 - - -;
#X obj 1148 -936 *~;
#X obj 1148 -1024 receive~ signalinr;
#X obj 1147 -898 send~ untouchedr;
#X obj 81 -740 receive~ untouchedr;
#X obj 89 -721 receive~ bassr;
#X obj 99 -697 receive~ trebleboostr;
#X text 576 -1044 This is the treble boost;
#X obj 230 -1109 hsl 128 15 0 500 0 0 empty empty empty -2 -8 0 10
-4034 -1 -1 0 1;
#X obj 227 -1078 send commonbassf;
#X obj 240 -981 receive commonbassf;
#X obj 425 -985 receive commonbassf;
#X obj 227 -889 receive commonbassa;
#X obj 404 -892 receive commonbassa;
#X obj 378 -1103 hsl 128 15 0 5 0 0 empty empty empty -2 -8 0 10 -4034
-1 -1 0 1;
#X obj 375 -1065 send commonbassa;
#X obj 615 -1090 hsl 128 15 1000 5000 0 0 empty empty empty -2 -8 0
10 -4034 -1 -1 0 1;
#X obj 767 -1092 hsl 128 15 0 5 0 0 empty empty empty -2 -8 0 10 -4034
-1 -1 0 1;
#X obj 612 -1059 send commontrebf;
#X obj 764 -1055 send commontreba;
#X obj 633 -978 receive commontrebf;
#X obj 835 -986 receive commontrebf;
#X obj 623 -897 receive commontreba;
#X obj 821 -903 receive commontreba;
#X obj 1038 -1104 hsl 128 15 0 5 0 0 empty empty empty -2 -8 0 10 -4034
-1 -1 0 1;
#X obj 1035 -1062 send commonpassa;
#X obj 1019 -972 receive commonpassa;
#X obj 1186 -969 receive commonpassa;
#X obj -39 -619 +~;
#X obj -29 -548 dac~;
#X obj 105 -617 +~;
#X obj 138 -573 *~;
#X obj 150 -518 hsl 128 15 0 1 0 0 empty empty empty -2 -8 0 10 -262144
-1 -1 0 1;
#X obj 247 -581 metro 100;
#X connect 0 0 20 0;
#X connect 0 1 21 0;
#X connect 1 0 5 0;
#X connect 1 0 16 1;
#X connect 2 0 4 0;
#X connect 2 0 3 1;
#X connect 3 0 33 0;
#X connect 7 0 8 1;
#X connect 7 0 9 0;
#X connect 8 0 10 0;
#X connect 10 0 42 0;
#X connect 12 0 18 0;
#X connect 12 0 19 1;
#X connect 14 0 81 0;
#X connect 16 0 3 0;
#X connect 17 0 10 1;
#X connect 17 0 11 0;
#X connect 19 0 46 0;
#X connect 22 0 16 0;
#X connect 23 0 8 0;
#X connect 24 0 19 0;
#X connect 25 0 29 0;
#X connect 25 0 30 1;
#X connect 26 0 28 0;
#X connect 26 0 27 1;
#X connect 27 0 31 0;
#X connect 30 0 27 0;
#X connect 32 0 30 0;
#X connect 34 0 35 1;
#X connect 34 0 36 0;
#X connect 35 0 37 0;
#X connect 37 0 40 0;
#X connect 39 0 37 1;
#X connect 39 0 38 0;
#X connect 41 0 35 0;
#X connect 43 0 76 0;
#X connect 44 0 76 0;
#X connect 45 0 76 1;
#X connect 47 0 48 0;
#X connect 47 0 49 1;
#X connect 49 0 51 0;
#X connect 50 0 49 0;
#X connect 52 0 78 0;
#X connect 53 0 78 0;
#X connect 54 0 78 1;
#X connect 56 0 57 0;
#X connect 58 0 16 1;
#X connect 58 0 5 0;
#X connect 59 0 30 1;
#X connect 59 0 29 0;
#X connect 60 0 3 1;
#X connect 60 0 4 0;
#X connect 61 0 27 1;
#X connect 61 0 28 0;
#X connect 62 0 63 0;
#X connect 64 0 66 0;
#X connect 65 0 67 0;
#X connect 68 0 8 1;
#X connect 68 0 9 0;
#X connect 69 0 35 1;
#X connect 69 0 36 0;
#X connect 70 0 10 1;
#X connect 70 0 11 0;
#X connect 71 0 37 1;
#X connect 71 0 38 0;
#X connect 72 0 73 0;
#X connect 74 0 19 1;
#X connect 74 0 18 0;
#X connect 75 0 49 1;
#X connect 75 0 48 0;
#X connect 76 0 77 0;
#X connect 78 0 77 1;
#X connect 78 0 79 0;
#X connect 79 0 13 0;
#X connect 80 0 79 1;
#X connect 81 0 13 0;
