#N canvas 210 204 809 526 10;
#X obj 47 254 soundfiler;
#X obj 173 83 notein;
#X floatatom 147 198 5 0 0 0 - - -;
#X obj 249 192 f;
#X obj 302 193 + 1;
#X obj 253 133 tgl 15 0 empty empty empty 17 7 0 10 -262144 -1 -1 0
1;
#X floatatom 342 296 5 0 0 0 - - -;
#X obj 349 329 makenote;
#X obj 349 381 noteout;
#X msg 430 302 1300;
#X msg 412 346 1;
#N canvas 0 0 450 300 (subpatch) 0;
#X array values 16 float 3;
#A 0 64 67 64 64 60 67 64 60 67 67 64 67 67 64 60 72;
#X coords 0 0 16 100 200 140 1 0 0;
#X restore 375 -86 graph;
#X obj 268 162 metro 250;
#X obj 251 228 mod 15;
#X floatatom 198 128 5 0 0 0 - - -;
#X obj 147 256 tabwrite values;
#X obj 343 269 tabread values;
#N canvas 0 0 450 300 (subpatch) 0;
#X array velocities 16 float 3;
#A 0 100 0 0 100 0 0 100 0 0 100 0 100 0 0 0 0;
#X coords 0 1 16 127 200 140 1 0 0;
#X restore 514 115 graph;
#X obj 198 306 tabwrite velocities;
#X obj 452 259 tabread velocities;
#X floatatom 232 102 5 0 0 0 - - -;
#X obj 146 145 stripnote;
#X connect 1 0 21 0;
#X connect 1 1 14 0;
#X connect 1 2 20 0;
#X connect 2 0 15 0;
#X connect 3 0 4 0;
#X connect 3 0 13 0;
#X connect 4 0 3 1;
#X connect 5 0 12 0;
#X connect 6 0 7 0;
#X connect 7 0 8 0;
#X connect 7 1 8 1;
#X connect 9 0 7 2;
#X connect 10 0 8 2;
#X connect 12 0 3 0;
#X connect 13 0 15 1;
#X connect 13 0 16 0;
#X connect 13 0 18 1;
#X connect 13 0 19 0;
#X connect 14 0 18 0;
#X connect 16 0 6 0;
#X connect 19 0 7 1;
#X connect 21 0 2 0;
