#N canvas 421 228 450 293 10;
#X obj 133 43 adc~;
#X obj 245 89 fiddle~;
#X floatatom 245 128 5 0 0 0 - - -;
#X obj 245 153 mtof;
#X obj 132 238 dac~;
#X obj 132 200 ringmodabs;
#X obj 245 183 * 0.5;
#X connect 0 0 1 0;
#X connect 0 0 5 0;
#X connect 0 1 1 0;
#X connect 0 1 5 0;
#X connect 1 0 2 0;
#X connect 2 0 3 0;
#X connect 3 0 6 0;
#X connect 5 0 4 0;
#X connect 5 0 4 1;
#X connect 6 0 5 1;
